<svg width="25" height="25" viewBox="0 0 25 25" fill="none" xmlns="http://www.w3.org/2000/svg">
<path d="M6.04999 8.5C7.14999 8.5 8.04999 7.6 8.04999 6.5C8.04999 5.4 7.14999 4.5 6.04999 4.5C4.94999 4.5 4.04999 5.4 4.04999 6.5C4.04999 7.6 4.94999 8.5 6.04999 8.5ZM12.05 20.5C13.15 20.5 14.05 19.6 14.05 18.5C14.05 17.4 13.15 16.5 12.05 16.5C10.95 16.5 10.05 17.4 10.05 18.5C10.05 19.6 10.95 20.5 12.05 20.5ZM6.04999 20.5C7.14999 20.5 8.04999 19.6 8.04999 18.5C8.04999 17.4 7.14999 16.5 6.04999 16.5C4.94999 16.5 4.04999 17.4 4.04999 18.5C4.04999 19.6 4.94999 20.5 6.04999 20.5ZM6.04999 14.5C7.14999 14.5 8.04999 13.6 8.04999 12.5C8.04999 11.4 7.14999 10.5 6.04999 10.5C4.94999 10.5 4.04999 11.4 4.04999 12.5C4.04999 13.6 4.94999 14.5 6.04999 14.5ZM12.05 14.5C13.15 14.5 14.05 13.6 14.05 12.5C14.05 11.4 13.15 10.5 12.05 10.5C10.95 10.5 10.05 11.4 10.05 12.5C10.05 13.6 10.95 14.5 12.05 14.5ZM16.05 6.5C16.05 7.6 16.95 8.5 18.05 8.5C19.15 8.5 20.05 7.6 20.05 6.5C20.05 5.4 19.15 4.5 18.05 4.5C16.95 4.5 16.05 5.4 16.05 6.5ZM12.05 8.5C13.15 8.5 14.05 7.6 14.05 6.5C14.05 5.4 13.15 4.5 12.05 4.5C10.95 4.5 10.05 5.4 10.05 6.5C10.05 7.6 10.95 8.5 12.05 8.5ZM18.05 14.5C19.15 14.5 20.05 13.6 20.05 12.5C20.05 11.4 19.15 10.5 18.05 10.5C16.95 10.5 16.05 11.4 16.05 12.5C16.05 13.6 16.95 14.5 18.05 14.5ZM18.05 20.5C19.15 20.5 20.05 19.6 20.05 18.5C20.05 17.4 19.15 16.5 18.05 16.5C16.95 16.5 16.05 17.4 16.05 18.5C16.05 19.6 16.95 20.5 18.05 20.5Z" fill="#5F6368"/>
</svg>
